<svg xmlns="http://www.w3.org/2000/svg" version="1.1" xmlns:xlink="http://www.w3.org/1999/xlink" xmlns:svgjs="http://svgjs.dev/svgjs" width="1000" height="1000"><style>
    #light-icon {
      display: inline;
    }
    #dark-icon {
      display: none;
    }

    @media (prefers-color-scheme: dark) {
      #light-icon {
        display: none;
      }
      #dark-icon {
        display: inline;
      }
    }
  </style><g id="light-icon"><svg xmlns="http://www.w3.org/2000/svg" version="1.1" xmlns:xlink="http://www.w3.org/1999/xlink" xmlns:svgjs="http://svgjs.dev/svgjs" width="1000" height="1000"><g><g transform="matrix(0.9545354753109399,0,0,0.9545354753109399,21.777726869219123,0)"><svg xmlns="http://www.w3.org/2000/svg" version="1.1" xmlns:xlink="http://www.w3.org/1999/xlink" xmlns:svgjs="http://svgjs.dev/svgjs" width="1002" height="1047.63"><svg version="1.1" id="svg1" width="1002" height="1047.63" viewBox="0 0 1002 1047.63" sodipodi:docname="favicon.svg" inkscape:version="1.4 (e7c3feb100, 2024-10-09)" xmlns:inkscape="http://www.inkscape.org/namespaces/inkscape" xmlns:sodipodi="http://sodipodi.sourceforge.net/DTD/sodipodi-0.dtd" xmlns="http://www.w3.org/2000/svg" xmlns:svg="http://www.w3.org/2000/svg">
  <defs id="defs1"></defs>
  <sodipodi:namedview id="namedview1" pagecolor="#ffffff" bordercolor="#000000" borderopacity="0.25" inkscape:showpageshadow="2" inkscape:pageopacity="0.0" inkscape:pagecheckerboard="0" inkscape:deskcolor="#d1d1d1" inkscape:zoom="0.35253906" inkscape:cx="765.87258" inkscape:cy="658.08311" inkscape:window-width="1366" inkscape:window-height="728" inkscape:window-x="0" inkscape:window-y="40" inkscape:window-maximized="1" inkscape:current-layer="svg1"></sodipodi:namedview>
  <g inkscape:groupmode="layer" inkscape:label="Image" id="g1"></g>
  <g id="g5" transform="translate(0,-4.2857749e-4)">
    <path style="fill:#000000;fill-opacity:1;stroke:none;stroke-width:1.60866" d="m 288.4818,160.20919 c 0,134.53347 1.70758,269.39593 -1.5851,403.77406 -0.82921,33.84159 -1.00292,68.20532 0.32151,102.02837 0.80658,20.5983 4.59093,43.61648 -1.59007,63.66378 -17.64436,57.22767 -85.13761,47.86857 -119.40462,14.45439 -15.21843,-14.83967 -31.58585,-31.29861 -39.47053,-51.45361 -11.63556,-29.74296 -5.572,-68.34151 -5.572,-99.73702 H 31.095942 c 0,52.48357 -4.384054,106.53878 21.410353,154.43152 47.618295,88.41345 162.442765,149.59512 255.279445,90.57538 13.60873,-8.65165 25.87138,-18.68655 36.29291,-31.0549 41.02408,-48.68774 34.4882,-107.94096 34.4882,-167.30081 V 314.64071 203.64306 c 0,-9.40356 4.31842,-33.31463 -1.65334,-40.85456 -3.92602,-4.95696 -16.8853,-2.57931 -22.47659,-2.57931 H 288.4818 m 0,743.20166 v 90.08505 c 30.12082,-3.88989 62.1507,-14.82808 88.47639,-29.8869 22.64482,-12.95314 42.70317,-28.90407 61.12914,-47.32886 32.75095,-32.74879 60.1355,-71.21607 73.95739,-115.82363 12.49776,-40.33417 11.30167,-82.16949 11.30167,-123.86694 V 522.15805 h 168.90947 41.8252 l 14.43328,-2.57931 3.262,-26.3766 v -62.7378 H 523.34639 V 253.51156 h 300.81972 v -67.56378 c 0,-5.84339 2.57304,-20.0046 -2.57931,-24.08526 -4.72937,-3.74575 -15.87022,-1.65333 -21.55061,-1.65333 h -56.30316 -221.9953 -64.34646 c -5.59134,0 -18.55048,-2.37775 -22.47659,2.57931 -6.1503,7.76535 -1.65334,32.75626 -1.65334,42.46322 V 321.07535 612.2431 c 0,48.9874 7.98675,105.12168 -5.07056,152.82285 -17.656,64.50101 -73.79587,123.09619 -139.70898,138.3449 z" id="path1"></path>
    <path id="path2-3" style="display:inline;fill:#000000;stroke-width:20.1228;stroke-linecap:round;stroke-linejoin:round" inkscape:label="Circulo Preto" d="m -653.6155,-15.601551 a 310.81717,325 0 0 0 -310.81617,324.999651 310.81717,325 0 0 0 0.24282,3.55254 305.14404,317.90858 0 0 1 304.90093,-314.3699335 305.14404,317.90858 0 0 1 305.14498,317.9091235 305.14404,317.90858 0 0 1 -302.30391,317.69787 310.81717,325 0 0 0 2.83135,0.21126 A 310.81717,325 0 0 0 -342.79689,309.3981 310.81717,325 0 0 0 -653.6155,-15.601551 Z" transform="matrix(1.6086616,0,0,1.6086616,1552.4442,26.097616)"></path>
  </g>
</svg></svg></g></g></svg></g><g id="dark-icon"><svg xmlns="http://www.w3.org/2000/svg" version="1.1" xmlns:xlink="http://www.w3.org/1999/xlink" xmlns:svgjs="http://svgjs.dev/svgjs" width="1000" height="1000"><g><g transform="matrix(0.9545354753109399,0,0,0.9545354753109399,21.777726869219123,0)"><svg xmlns="http://www.w3.org/2000/svg" version="1.1" xmlns:xlink="http://www.w3.org/1999/xlink" xmlns:svgjs="http://svgjs.dev/svgjs" width="1002" height="1047.63"><svg version="1.1" id="svg1" width="1002" height="1047.63" viewBox="0 0 1002 1047.63" sodipodi:docname="favicon-dark.svg" inkscape:version="1.4 (e7c3feb100, 2024-10-09)" xmlns:inkscape="http://www.inkscape.org/namespaces/inkscape" xmlns:sodipodi="http://sodipodi.sourceforge.net/DTD/sodipodi-0.dtd" xmlns="http://www.w3.org/2000/svg" xmlns:svg="http://www.w3.org/2000/svg">
  <defs id="defs1"></defs>
  <sodipodi:namedview id="namedview1" pagecolor="#ffffff" bordercolor="#000000" borderopacity="0.25" inkscape:showpageshadow="2" inkscape:pageopacity="0.0" inkscape:pagecheckerboard="0" inkscape:deskcolor="#d1d1d1" inkscape:zoom="0.24928276" inkscape:cx="304.87467" inkscape:cy="930.67006" inkscape:window-width="1366" inkscape:window-height="728" inkscape:window-x="0" inkscape:window-y="40" inkscape:window-maximized="1" inkscape:current-layer="svg1"></sodipodi:namedview>
  <g inkscape:groupmode="layer" inkscape:label="Image" id="g1"></g>
  <path style="fill:#1e1e1e;fill-opacity:1;stroke:none;stroke-width:1.54145" d="m 401.33294,179.88564 c 0,128.91267 1.63624,258.14058 -1.51887,386.90441 -0.79458,32.42768 -0.96102,65.35571 0.30807,97.76564 0.77287,19.7377 4.39912,41.79418 -1.52364,61.0039 -16.90718,54.8367 -81.58057,45.86863 -114.41591,13.85049 -14.5826,-14.21967 -30.26619,-29.99096 -37.82145,-49.30388 -11.14942,-28.50031 -5.3392,-65.48621 -5.3392,-95.57001 h -86.3213 c 0,50.2908 -4.20089,102.08759 20.51583,147.97938 45.6288,84.71954 155.65592,143.34505 244.61389,86.79114 13.04015,-8.29018 24.79047,-17.90582 34.77659,-29.75742 39.31011,-46.65357 33.04729,-103.4312 33.04729,-160.311 V 327.86502 221.50484 c 0,-9.01068 4.13799,-31.92274 -1.58427,-39.14766 -3.76199,-4.74986 -16.17983,-2.47154 -21.53751,-2.47154 h -63.19952 m 0,712.15075 v 86.32135 c 28.86237,-3.7274 59.55404,-14.2086 84.77985,-28.6383 21.69872,-12.4119 40.91903,-27.69643 58.57517,-45.35143 31.38262,-31.38056 57.62304,-68.24067 70.86745,-110.98454 11.97561,-38.649 10.82949,-78.73645 10.82949,-118.69179 V 526.7123 h 161.85245 40.07774 l 13.83026,-2.47154 3.12572,-25.27459 V 438.84955 H 626.3849 V 269.28983 h 288.25149 v -64.74096 c 0,-5.59926 2.46555,-19.16881 -2.47154,-23.07898 -4.53177,-3.58925 -15.20716,-1.58425 -20.65022,-1.58425 H 837.5638 624.84346 563.18539 c -5.35774,0 -17.77545,-2.27842 -21.53753,2.47154 -5.89334,7.44091 -1.58426,31.38771 -1.58426,40.68911 v 110.98453 279.00279 c 0,46.94071 7.65306,100.7297 -4.85872,146.43792 -16.91833,61.80617 -70.71268,117.95324 -133.87194,132.56486 z" id="path1"></path>
  <text xml:space="preserve" style="font-size:24px;line-height:0.9;font-family:'Linux Biolinum';-inkscape-font-specification:'Linux Biolinum';text-align:start;text-decoration-color:#000000;word-spacing:0.01px;writing-mode:lr-tb;direction:ltr;text-anchor:start;fill:#fbf0e6;fill-opacity:1;stroke-width:20;stroke-linecap:round;stroke-linejoin:round" x="68.195648" y="465.33502" id="text5" svgjs:data="{&quot;leading&quot;:&quot;1.3&quot;}"><tspan sodipodi:role="line" id="tspan5" x="68.195648" y="465.33502">S</tspan></text>
</svg></svg></g></g></svg></g></svg>