<svg xmlns="http://www.w3.org/2000/svg" version="1.1" xmlns:xlink="http://www.w3.org/1999/xlink" xmlns:svgjs="http://svgjs.dev/svgjs" width="1000" height="1000"><style>
    #light-icon {
      display: inline;
    }
    #dark-icon {
      display: none;
    }

    @media (prefers-color-scheme: dark) {
      #light-icon {
        display: none;
      }
      #dark-icon {
        display: inline;
      }
    }
  </style><g id="light-icon"><svg xmlns="http://www.w3.org/2000/svg" version="1.1" xmlns:xlink="http://www.w3.org/1999/xlink" xmlns:svgjs="http://svgjs.dev/svgjs" width="1000" height="1000"><g><g transform="matrix(0.9545354753109399,0,0,0.9545354753109399,21.777726869219123,0)"><svg xmlns="http://www.w3.org/2000/svg" version="1.1" xmlns:xlink="http://www.w3.org/1999/xlink" xmlns:svgjs="http://svgjs.dev/svgjs" width="1002" height="1047.63"><svg version="1.1" id="svg1" width="1002" height="1047.63" viewBox="0 0 1002 1047.63" sodipodi:docname="fovicon.svg" inkscape:version="1.4 (e7c3feb100, 2024-10-09)" xmlns:inkscape="http://www.inkscape.org/namespaces/inkscape" xmlns:sodipodi="http://sodipodi.sourceforge.net/DTD/sodipodi-0.dtd" xmlns="http://www.w3.org/2000/svg" xmlns:svg="http://www.w3.org/2000/svg">
  <defs id="defs1"></defs>
  <sodipodi:namedview id="namedview1" pagecolor="#ffffff" bordercolor="#000000" borderopacity="0.25" inkscape:showpageshadow="2" inkscape:pageopacity="0.0" inkscape:pagecheckerboard="0" inkscape:deskcolor="#d1d1d1" inkscape:zoom="0.35253906" inkscape:cx="581.49584" inkscape:cy="363.08033" inkscape:window-width="1366" inkscape:window-height="728" inkscape:window-x="0" inkscape:window-y="40" inkscape:window-maximized="1" inkscape:current-layer="g1"></sodipodi:namedview>
  <g inkscape:groupmode="layer" inkscape:label="Image" id="g1">
    <g id="g4" transform="matrix(1.6086616,0,0,1.6086616,-364.04658,-302.44367)">
      <g id="g3" transform="translate(1191.3573,204.23269)">
        <path id="path2-3" style="fill:#1e1e1e;fill-opacity:1;stroke-width:20.1228;stroke-linecap:round;stroke-linejoin:round" sodipodi:type="inkscape:offset" inkscape:radius="0" inkscape:original="M -653.61523 -15.601562 A 310.81717 325 0 0 0 -964.43164 309.39844 A 310.81717 325 0 0 0 -653.61523 634.39844 A 310.81717 325 0 0 0 -342.79688 309.39844 A 310.81717 325 0 0 0 -653.61523 -15.601562 z " d="m -653.61523,-15.601562 a 310.81717,325 0 0 0 -310.81641,325.000002 310.81717,325 0 0 0 310.81641,325 310.81717,325 0 0 0 310.81835,-325 310.81717,325 0 0 0 -310.81835,-325.000002 z"></path>
        <path id="path2" style="fill:#f9f9f9;fill-opacity:1;stroke-width:20.1228;stroke-linecap:round;stroke-linejoin:round" sodipodi:type="inkscape:offset" inkscape:radius="0" inkscape:original="M -653.61523 -15.601562 A 310.81717 325 0 0 0 -964.43164 309.39844 A 310.81717 325 0 0 0 -653.61523 634.39844 A 310.81717 325 0 0 0 -342.79688 309.39844 A 310.81717 325 0 0 0 -653.61523 -15.601562 z " d="m -653.61523,-15.601562 a 310.81717,325 0 0 0 -310.81641,325.000002 310.81717,325 0 0 0 310.81641,325 310.81717,325 0 0 0 310.81835,-325 310.81717,325 0 0 0 -310.81835,-325.000002 z" transform="matrix(0.98174771,0,0,0.97818027,-17.60309,13.842404)"></path>
        <path style="fill:#1e1e1e;fill-opacity:1;stroke:none" d="m -785.72299,83.368419 c 0,83.630681 1.06149,167.465881 -0.98535,251.000001 -0.51547,21.03711 -0.62345,42.3988 0.19986,63.42438 0.5014,12.80462 2.85388,27.11352 -0.98844,39.57562 -10.96835,35.57471 -52.9245,29.75677 -74.22607,8.98535 -9.4603,-9.22485 -19.63486,-19.4563 -24.53625,-31.98535 -7.23307,-18.48926 -3.46375,-42.48346 -3.46375,-62 h -56 c 0,32.62561 -2.72528,66.22821 13.30942,96 29.60119,54.96088 100.98007,92.99353 158.69058,56.30481 8.45966,-5.37817 16.08255,-11.61621 22.56094,-19.30481 25.50199,-30.26599 21.43906,-67.09985 21.43906,-104 v -202 -69 c 0,-5.84558 2.68448,-20.709531 -1.02777,-25.396611 -2.44055,-3.08142 -10.49649,-1.60339 -13.97223,-1.60339 h -41 m 0,462.000001 v 56 c 18.72415,-2.41809 38.63504,-9.21765 55,-18.57874 14.07681,-8.05212 26.54578,-17.96777 38,-29.42126 20.35913,-20.35779 37.38232,-44.27039 45.97449,-72 7.76904,-25.07312 7.02551,-51.07941 7.02551,-77 v -96 h 105 26 l 8.97223,-1.60339 2.02777,-16.39661 v -39 h -142 v -110 h 187 V 99.368419 c 0,-3.63245 1.59949,-12.43555 -1.60339,-14.97223 -2.93994,-2.32849 -9.86548,-1.02777 -13.39661,-1.02777 h -35 -138 -40 c -3.47577,0 -11.53162,-1.47809 -13.97223,1.60339 -3.82324,4.82721 -1.02777,20.362431 -1.02777,26.396611 v 72 181 c 0,30.45227 4.96484,65.34729 -3.15204,95 -10.97558,40.09607 -45.87408,76.52087 -86.84796,86 z" id="path1"></path>
      </g>
    </g>
  </g>
</svg></svg></g></g></svg></g><g id="dark-icon"><svg xmlns="http://www.w3.org/2000/svg" version="1.1" xmlns:xlink="http://www.w3.org/1999/xlink" xmlns:svgjs="http://svgjs.dev/svgjs" width="1000" height="1000"><g><g transform="matrix(0.9545354753109399,0,0,0.9545354753109399,21.777726869219123,0)"><svg xmlns="http://www.w3.org/2000/svg" version="1.1" xmlns:xlink="http://www.w3.org/1999/xlink" xmlns:svgjs="http://svgjs.dev/svgjs" width="1002" height="1047.63"><svg version="1.1" id="svg1" width="1002" height="1047.63" viewBox="0 0 1002 1047.63" sodipodi:docname="fovicon-dark.svg" inkscape:version="1.4 (e7c3feb100, 2024-10-09)" xmlns:inkscape="http://www.inkscape.org/namespaces/inkscape" xmlns:sodipodi="http://sodipodi.sourceforge.net/DTD/sodipodi-0.dtd" xmlns="http://www.w3.org/2000/svg" xmlns:svg="http://www.w3.org/2000/svg">
  <defs id="defs1"></defs>
  <sodipodi:namedview id="namedview1" pagecolor="#ffffff" bordercolor="#000000" borderopacity="0.25" inkscape:showpageshadow="2" inkscape:pageopacity="0.0" inkscape:pagecheckerboard="0" inkscape:deskcolor="#d1d1d1" inkscape:zoom="0.35253906" inkscape:cx="754.52632" inkscape:cy="581.49584" inkscape:window-width="1366" inkscape:window-height="728" inkscape:window-x="0" inkscape:window-y="40" inkscape:window-maximized="1" inkscape:current-layer="g1"></sodipodi:namedview>
  <g inkscape:groupmode="layer" inkscape:label="Image" id="g1">
    <path id="path2-3" style="fill:#f9f9f9;fill-opacity:1;stroke-width:20.1228;stroke-linecap:round;stroke-linejoin:round" sodipodi:type="inkscape:offset" inkscape:radius="0" inkscape:original="M -653.61523 -15.601562 A 310.81717 325 0 0 0 -964.43164 309.39844 A 310.81717 325 0 0 0 -653.61523 634.39844 A 310.81717 325 0 0 0 -342.79688 309.39844 A 310.81717 325 0 0 0 -653.61523 -15.601562 z " d="m -653.61523,-15.601562 a 310.81717,325 0 0 0 -310.81641,325.000002 310.81717,325 0 0 0 310.81641,325 310.81717,325 0 0 0 310.81835,-325 310.81717,325 0 0 0 -310.81835,-325.000002 z" transform="matrix(1.6086616,0,0,1.6086616,1552.4442,26.097616)"></path>
    <path id="path2" style="fill:#1e1e1e;fill-opacity:1;stroke-width:20.1228;stroke-linecap:round;stroke-linejoin:round" sodipodi:type="inkscape:offset" inkscape:radius="0" inkscape:original="M -653.61523 -15.601562 A 310.81717 325 0 0 0 -964.43164 309.39844 A 310.81717 325 0 0 0 -653.61523 634.39844 A 310.81717 325 0 0 0 -342.79688 309.39844 A 310.81717 325 0 0 0 -653.61523 -15.601562 z " d="m -653.61523,-15.601562 a 310.81717,325 0 0 0 -310.81641,325.000002 310.81717,325 0 0 0 310.81641,325 310.81717,325 0 0 0 310.81835,-325 310.81717,325 0 0 0 -310.81835,-325.000002 z" transform="matrix(1.5792998,0,0,1.573561,1524.1268,48.36536)"></path>
    <path style="fill:#f9f9f9;fill-opacity:1;stroke:none;stroke-width:1.60866" d="m 288.4818,160.20919 c 0,134.53347 1.70758,269.39593 -1.5851,403.77406 -0.82921,33.84159 -1.00292,68.20532 0.32151,102.02837 0.80658,20.5983 4.59093,43.61648 -1.59007,63.66378 -17.64436,57.22767 -85.13761,47.86857 -119.40462,14.45439 -15.21843,-14.83967 -31.58585,-31.29861 -39.47053,-51.45361 -11.63556,-29.74296 -5.572,-68.34151 -5.572,-99.73702 H 31.095942 c 0,52.48357 -4.384054,106.53878 21.410353,154.43152 47.618295,88.41345 162.442765,149.59512 255.279445,90.57538 13.60873,-8.65165 25.87138,-18.68655 36.29291,-31.0549 41.02408,-48.68774 34.4882,-107.94096 34.4882,-167.30081 V 314.64071 203.64306 c 0,-9.40356 4.31842,-33.31463 -1.65334,-40.85456 -3.92602,-4.95696 -16.8853,-2.57931 -22.47659,-2.57931 H 288.4818 m 0,743.20166 v 90.08505 c 30.12082,-3.88989 62.1507,-14.82808 88.47639,-29.8869 22.64482,-12.95314 42.70317,-28.90407 61.12914,-47.32886 32.75095,-32.74879 60.1355,-71.21607 73.95739,-115.82363 12.49776,-40.33417 11.30167,-82.16949 11.30167,-123.86694 V 522.15805 h 168.90947 41.8252 l 14.43328,-2.57931 3.262,-26.3766 v -62.7378 H 523.34639 V 253.51156 h 300.81972 v -67.56378 c 0,-5.84339 2.57304,-20.0046 -2.57931,-24.08526 -4.72937,-3.74575 -15.87022,-1.65333 -21.55061,-1.65333 h -56.30316 -221.9953 -64.34646 c -5.59134,0 -18.55048,-2.37775 -22.47659,2.57931 -6.1503,7.76535 -1.65334,32.75626 -1.65334,42.46322 V 321.07535 612.2431 c 0,48.9874 7.98675,105.12168 -5.07056,152.82285 -17.656,64.50101 -73.79587,123.09619 -139.70898,138.3449 z" id="path1"></path>
  </g>
</svg></svg></g></g></svg></g></svg>